<svg xmlns="http://www.w3.org/2000/svg" viewBox="0 0 220 220">
  <defs>
    <linearGradient id="sky" x1="0" y1="0" x2="0" y2="1">
      <stop offset="0%" stop-color="#fdf6e3"/>
      <stop offset="55%" stop-color="#f4e7c1"/>
      <stop offset="100%" stop-color="#c8b07a"/>
    </linearGradient>
    <pattern id="dots" width="22" height="22" patternUnits="userSpaceOnUse">
      <circle cx="2" cy="2" r="1.2" fill="#a68b56" fill-opacity="0.18"/>
    </pattern>
    <radialGradient id="qr-glow" cx="50%" cy="50%" r="50%">
      <stop offset="0%" stop-color="#fff7c2" stop-opacity="0.8"/>
      <stop offset="100%" stop-color="#fff7c2" stop-opacity="0"/>
    </radialGradient>
  </defs>
  <rect width="220" height="220" fill="url(#sky)"/>
  <rect width="220" height="220" fill="url(#dots)"/>
  <circle cx="110" cy="110" r="100" fill="url(#qr-glow)"/>
  <g stroke="#0c0c1c" stroke-width="2" fill="none" stroke-linecap="round" opacity="0.95">
    <path d="M 110 200 L 110 110"/>
    <path d="M 110 150 L 70 110"/>
    <path d="M 110 150 L 150 110"/>
    <path d="M 110 110 L 80 70"/>
    <path d="M 110 110 L 140 70"/>
    <path d="M 70 110 L 50 70"/>
    <path d="M 150 110 L 170 70"/>
    <path d="M 80 70 L 70 40"/>
    <path d="M 80 70 L 90 40"/>
    <path d="M 140 70 L 130 40"/>
    <path d="M 140 70 L 150 40"/>
  </g>
  <g fill="#5b21b6">
    <circle cx="70" cy="40" r="4"/>
    <circle cx="90" cy="40" r="4"/>
    <circle cx="130" cy="40" r="4"/>
    <circle cx="150" cy="40" r="4"/>
    <circle cx="50" cy="70" r="4"/>
    <circle cx="170" cy="70" r="4"/>
  </g>
  <circle cx="110" cy="110" r="6" fill="#d97706"/>
</svg>
